HIERARCHY
ROOT hips
{
  OFFSET 0 10.6860622 2.3727825e-15
  CHANNELS 6 Xposition Yposition Zposition Yrotation Xrotation Zrotation
  JOINT leftUpperLeg
  {
    OFFSET 0.6642549969 -0.9402397400000004 0
    CHANNELS 3 Yrotation Xrotation Zrotation
    JOINT leftLowerLeg
    {
      OFFSET 0 -3.997221335632195 0
      CHANNELS 3 Yrotation Xrotation Zrotation
      JOINT leftFoot
      {
        OFFSET -0.13777839790000004 -4.6145792000000005 -0.22186036399999998
        CHANNELS 3 Yrotation Xrotation Zrotation
        JOINT leftToes
        {
          OFFSET -0.03777410834999995 -0.9130806927000008 0.85230013
          CHANNELS 3 Yrotation Xrotation Zrotation
          End Site
          {
            OFFSET -0.03777410834999995 -0.9130806927000008 0.85230013
          }
        }
      }
    }
  }
  JOINT rightUpperLeg
  {
    OFFSET -0.6642778626 -0.9402397400000004 0
    CHANNELS 3 Yrotation Xrotation Zrotation
    JOINT rightLowerLeg
    {
      OFFSET 0 -3.997221452859387 0
      CHANNELS 3 Yrotation Xrotation Zrotation
      JOINT rightFoot
      {
        OFFSET 0.1377926176 -4.6145792000000005 -0.22185782299999995
        CHANNELS 3 Yrotation Xrotation Zrotation
        JOINT rightToes
        {
          OFFSET 0.037780746850000047 -0.9130806927000008 0.85230167
          CHANNELS 3 Yrotation Xrotation Zrotation
          End Site
          {
            OFFSET 0.037780746850000047 -0.9130806927000008 0.85230167
          }
        }
      }
    }
  }
  JOINT spine
  {
    OFFSET 0 0.13988381660000015 0
    CHANNELS 3 Yrotation Xrotation Zrotation
    JOINT chest
    {
      OFFSET 0 0.6191039003973773 0
      CHANNELS 3 Yrotation Xrotation Zrotation
      JOINT upperChest
      {
        OFFSET 0 0.9855186130586943 0
        CHANNELS 3 Yrotation Xrotation Zrotation
        JOINT leftShoulder
        {
          OFFSET 0.1807663869 1.5087829790000005 0
          CHANNELS 3 Yrotation Xrotation Zrotation
          JOINT leftUpperArm
          {
            OFFSET 0.5985063006419806 0 0
            CHANNELS 3 Yrotation Xrotation Zrotation
            JOINT leftLowerArm
            {
              OFFSET 2.2993332369501065 0 0
              CHANNELS 3 Yrotation Xrotation Zrotation
              JOINT leftHand
              {
                OFFSET 2.395047042602395 0 0
                CHANNELS 3 Yrotation Xrotation Zrotation
                JOINT leftIndexProximal
                {
                  OFFSET 0.5766295810000004 0.04556643899499946 0.17265095988184
                  CHANNELS 3 Yrotation Xrotation Zrotation
                  JOINT leftIndexIntermediate
                  {
                    OFFSET 0.2957229000000008 -0.019352197700001517 -0.007932640616999987
                    CHANNELS 3 Yrotation Xrotation Zrotation
                    JOINT leftIndexDistal
                    {
                      OFFSET 0.19008243099999922 -0.012484908149998475 -0.002786250786000012
                      CHANNELS 3 Yrotation Xrotation Zrotation
                      End Site
                      {
                        OFFSET 0.19008243099999922 -0.012484908149998475 -0.002786250786000012
                      }
                    }
                  }
                }
                JOINT leftMiddleProximal
                {
                  OFFSET 0.5834975091000001 0.0524350405149987 0.02204081888183999
                  CHANNELS 3 Yrotation Xrotation Zrotation
                  JOINT leftMiddleIntermediate
                  {
                    OFFSET 0.33880573540000003 -0.019871473270000717 -0.00000971183179999946
                    CHANNELS 3 Yrotation Xrotation Zrotation
                    JOINT leftMiddleDistal
                    {
                      OFFSET 0.20676022730000088 -0.012221336379999448 0.0001471936708000235
                      CHANNELS 3 Yrotation Xrotation Zrotation
                      End Site
                      {
                        OFFSET 0.20676022730000088 -0.012221336379999448 0.0001471936708000235
                      }
                    }
                  }
                }
                JOINT leftLittleProximal
                {
                  OFFSET 0.5344154683999995 -0.012880921405001189 -0.24414037221816004
                  CHANNELS 3 Yrotation Xrotation Zrotation
                  JOINT leftLittleIntermediate
                  {
                    OFFSET 0.21758961730000093 -0.011650919939999227 0.011893592810000034
                    CHANNELS 3 Yrotation Xrotation Zrotation
                    JOINT leftLittleDistal
                    {
                      OFFSET 0.1475273964999999 -0.008152365682999818 0.006001092492999946
                      CHANNELS 3 Yrotation Xrotation Zrotation
                      End Site
                      {
                        OFFSET 0.1475273964999999 -0.008152365682999818 0.006001092492999946
                      }
                    }
                  }
                }
                JOINT leftRingProximal
                {
                  OFFSET 0.5799399463000003 0.026911854694997794 -0.12150566991816003
                  CHANNELS 3 Yrotation Xrotation Zrotation
                  JOINT leftRingIntermediate
                  {
                    OFFSET 0.26167887460000006 -0.013480186499999602 0.010996293000000053
                    CHANNELS 3 Yrotation Xrotation Zrotation
                    JOINT leftRingDistal
                    {
                      OFFSET 0.17667108799999987 -0.008990287899999228 0.0055541023999999065
                      CHANNELS 3 Yrotation Xrotation Zrotation
                      End Site
                      {
                        OFFSET 0.17667108799999987 -0.008990287899999228 0.0055541023999999065
                      }
                    }
                  }
                }
                JOINT leftThumbProximal
                {
                  OFFSET 0.11018806699999972 -0.09448718900500053 0.17047963138184
                  CHANNELS 3 Yrotation Xrotation Zrotation
                  JOINT leftThumbIntermediate
                  {
                    OFFSET 0.31062601459999983 -0.08126270900000132 0.15443142000000007
                    CHANNELS 3 Yrotation Xrotation Zrotation
                    JOINT leftThumbDistal
                    {
                      OFFSET 0.21627175790000086 -0.08833193599999878 0.018771167799999988
                      CHANNELS 3 Yrotation Xrotation Zrotation
                      End Site
                      {
                        OFFSET 0.21627175790000086 -0.08833193599999878 0.018771167799999988
                      }
                    }
                  }
                }
              }
            }
          }
        }
        JOINT neck
        {
          OFFSET 0 1.5463305265074576 0
          CHANNELS 3 Yrotation Xrotation Zrotation
          JOINT head
          {
            OFFSET 0 0.8456443600000344 0
            CHANNELS 3 Yrotation Xrotation Zrotation
            JOINT leftEye
            {
              OFFSET 0.30408573140000006 0.5104519199999995 0.1276382305
              CHANNELS 3 Yrotation Xrotation Zrotation
              End Site
              {
                OFFSET 0.30408573140000006 0.5104519199999995 0.1276382305
              }
            }
            JOINT rightEye
            {
              OFFSET -0.30409491089999996 0.5104519199999995 0.1276379445
              CHANNELS 3 Yrotation Xrotation Zrotation
              End Site
              {
                OFFSET -0.30409491089999996 0.5104519199999995 0.1276379445
              }
            }
            JOINT jaw
            {
              OFFSET -3.155239131000001e-7 -0.11984121820000082 0.60178107
              CHANNELS 3 Yrotation Xrotation Zrotation
              End Site
              {
                OFFSET -3.155239131000001e-7 -0.11984121820000082 0.60178107
              }
            }
          }
        }
        JOINT rightShoulder
        {
          OFFSET -0.1807303465 1.5087829790000005 0
          CHANNELS 3 Yrotation Xrotation Zrotation
          JOINT rightUpperArm
          {
            OFFSET -0.5985063796536958 0 0
            CHANNELS 3 Yrotation Xrotation Zrotation
            JOINT rightLowerArm
            {
              OFFSET -2.2993322059002854 0 0
              CHANNELS 3 Yrotation Xrotation Zrotation
              JOINT rightHand
              {
                OFFSET -2.395045314457259 0 0
                CHANNELS 3 Yrotation Xrotation Zrotation
                JOINT rightIndexProximal
                {
                  OFFSET -0.5764487688300002 0.0441371204405987 0.17361932004999997
                  CHANNELS 3 Yrotation Xrotation Zrotation
                  JOINT rightIndexIntermediate
                  {
                    OFFSET -0.29573011380000047 -0.01934826376999843 -0.007698921482999974
                    CHANNELS 3 Yrotation Xrotation Zrotation
                    JOINT rightIndexDistal
                    {
                      OFFSET -0.19008373999999884 -0.012503266380000655 -0.0026365778999999897
                      CHANNELS 3 Yrotation Xrotation Zrotation
                      End Site
                      {
                        OFFSET -0.19008373999999884 -0.012503266380000655 -0.0026365778999999897
                      }
                    }
                  }
                }
                JOINT rightMiddleProximal
                {
                  OFFSET -0.5834852037300005 0.05211639405060153 0.02307162440000001
                  CHANNELS 3 Yrotation Xrotation Zrotation
                  JOINT rightMiddleIntermediate
                  {
                    OFFSET -0.33880114510000003 -0.019952774050000954 0.0002455003561999819
                    CHANNELS 3 Yrotation Xrotation Zrotation
                    JOINT rightMiddleDistal
                    {
                      OFFSET -0.20675694929999955 -0.012273788999999091 0.00030209124000002766
                      CHANNELS 3 Yrotation Xrotation Zrotation
                      End Site
                      {
                        OFFSET -0.20675694929999955 -0.012273788999999091 0.00030209124000002766
                      }
                    }
                  }
                }
                JOINT rightLittleProximal
                {
                  OFFSET -0.5346811737299992 -0.011214256288399227 -0.24363941305000003
                  CHANNELS 3 Yrotation Xrotation Zrotation
                  JOINT rightLittleIntermediate
                  {
                    OFFSET -0.21757715980000092 -0.011771559690000988 0.01201554387
                    CHANNELS 3 Yrotation Xrotation Zrotation
                    JOINT rightLittleDistal
                    {
                      OFFSET -0.1475201849000004 -0.00822055339600003 0.006082065407000015
                      CHANNELS 3 Yrotation Xrotation Zrotation
                      End Site
                      {
                        OFFSET -0.1475201849000004 -0.00822055339600003 0.006082065407000015
                      }
                    }
                  }
                }
                JOINT rightRingProximal
                {
                  OFFSET -0.5800810755299999 0.027657985680600072 -0.12066365025000003
                  CHANNELS 3 Yrotation Xrotation Zrotation
                  JOINT rightRingIntermediate
                  {
                    OFFSET -0.26166445029999974 -0.013623118409999302 0.011164098990000045
                    CHANNELS 3 Yrotation Xrotation Zrotation
                    JOINT rightRingDistal
                    {
                      OFFSET -0.17666387530000027 -0.009072900100000503 0.005668185599999959
                      CHANNELS 3 Yrotation Xrotation Zrotation
                      End Site
                      {
                        OFFSET -0.17666387530000027 -0.009072900100000503 0.005668185599999959
                      }
                    }
                  }
                }
                JOINT rightThumbProximal
                {
                  OFFSET -0.10997596379000074 -0.09577489355940072 0.16989765924999997
                  CHANNELS 3 Yrotation Xrotation Zrotation
                  JOINT rightThumbIntermediate
                  {
                    OFFSET -0.31036620999999986 -0.08229339117999834 0.15440884469999996
                    CHANNELS 3 Yrotation Xrotation Zrotation
                    JOINT rightThumbDistal
                    {
                      OFFSET -0.21631306399999906 -0.08825326400000111 0.018656797720000014
                      CHANNELS 3 Yrotation Xrotation Zrotation
                      End Site
                      {
                        OFFSET -0.21631306399999906 -0.08825326400000111 0.018656797720000014
                      }
                    }
                  }
                }
              }
            }
          }
        }
      }
    }
  }
}
MOTION
Frames: 7
Frame Time: 0.03333333333333333
2.674099287538694 -2.9901223300566464 -4.676650247158384 6.304747156093578 17.896655739007596 1.9421362192763718 4.636828351087531 -58.26857935768748 22.126934290858962 176.27433018659556 47.108737902590825 177.83762995160419 17.652346062740953 57.57378260033331 18.103018671810975 0 0 0 -1.3725245415576328 -58.98079635804559 -15.022986896021894 -176.36584434322282 47.22618648049998 -178.1286261088478 -1.1433280206202314 54.37456377820777 3.0835038016978102 0 0 0 17.63560705833762 47.50427096624469 -4.222199325913211 -2.1980935793089205 28.691139565018677 -10.152660941602024 0 0 0 -52.268431801258224 -8.810131881554957 25.33390842369316 -20.429759458811358 -5.276663347098824 -8.026878794481087 -59.51890112663137 -21.570838601785326 -0.33347994233991635 34.06372929939917 -24.709880371010087 -56.810332553026 0 0 0 0 0 0 0 0 0 0 0 0 0 0 0 0 0 0 0 0 0 0 0 0 0 0 0 0 0 0 0 0 0 0 0 0 0 0 0 0 0 0 0 0 0 -16.569877193588052 -14.860254459278378 4.361390133893027 -21.124662130705335 -33.3269986075669 -1.6611418777374998 0 0 0 0 0 0 0 0 0 -14.471399304017611 -4.972771376922269 -11.113028702867075 63.53056682485033 -38.77791138456507 -20.93203990498672 53.8014631304066 13.539921239196541 -15.59501761252443 -6.253287772645858 -0.3853389392207426 10.934517180375353 0 0 0 0 0 0 0 0 0 0 0 0 0 0 0 0 0 0 0 0 0 0 0 0 0 0 0 0 0 0 0 0 0 0 0 0 0 0 0 0 0 0 0 0 0
2.674099287538694 -2.9901223300566464 -4.676650247158384 6.304747156093578 17.896655739007596 1.9421362192763718 4.636828351087531 -58.26857935768748 22.126934290858962 176.27433018659556 47.108737902590825 177.83762995160419 17.652346062740953 57.57378260033331 18.103018671810975 0 0 0 -1.3725245415576328 -58.98079635804559 -15.022986896021894 -176.36584434322282 47.22618648049998 -178.1286261088478 -1.1433280206202314 54.37456377820777 3.0835038016978102 0 0 0 17.540829942868104 47.172907860669 -4.3593521728328755 -2.1980935793089205 28.691139565018677 -10.152660941602024 0 0 0 -52.45538743863412 -8.493342051456233 25.043696950681955 -20.429759458811358 -5.276663347098824 -8.026878794481087 -58.59672983931263 -21.57095427890179 -0.2913085443861188 33.629188904813546 -24.55503079530134 -57.02465534573154 0 0 0 0 0 0 0 0 0 0 0 0 0 0 0 0 0 0 0 0 0 0 0 0 0 0 0 0 0 0 0 0 0 0 0 0 0 0 0 0 0 0 0 0 0 -16.569877193588052 -14.860254459278378 4.361390133893027 -21.124662130705335 -33.3269986075669 -1.6611418777374998 0 0 0 0 0 0 0 0 0 -14.118920171701925 -4.618037345158366 -10.81144468840144 63.14886657759944 -38.94246047925617 -20.429276187458907 53.58295057363606 13.5849041655939 -16.246170686891183 -5.9237713984382205 -0.37580146354078287 10.726491335463182 0 0 0 0 0 0 0 0 0 0 0 0 0 0 0 0 0 0 0 0 0 0 0 0 0 0 0 0 0 0 0 0 0 0 0 0 0 0 0 0 0 0 0 0 0
2.674099287538694 -2.9901223300566464 -4.676650247158384 6.304747156093578 17.896655739007596 1.9421362192763718 4.636828351087531 -58.26857935768748 22.126934290858962 176.27433018659556 47.108737902590825 177.83762995160419 17.652346062740953 57.57378260033331 18.103018671810975 0 0 0 -1.3725245415576328 -58.98079635804559 -15.022986896021894 -176.36584434322282 47.22618648049998 -178.1286261088478 -1.1433280206202314 54.37456377820777 3.0835038016978102 0 0 0 17.447776651449928 46.84134282494322 -4.494878884606958 -2.1980935793089205 28.691139565018677 -10.152660941602024 0 0 0 -52.64388343681532 -8.177401824505308 24.752598246070445 -20.429759458811358 -5.276663347098824 -8.026878794481087 -57.67357189587816 -21.571710772796894 -0.2490951814076026 33.19436392567864 -24.40159283797368 -57.240070709983776 0 0 0 0 0 0 0 0 0 0 0 0 0 0 0 0 0 0 0 0 0 0 0 0 0 0 0 0 0 0 0 0 0 0 0 0 0 0 0 0 0 0 0 0 0 -16.569877193588052 -14.860254459278378 4.361390133893027 -21.124662130705335 -33.3269986075669 -1.6611418777374998 0 0 0 0 0 0 0 0 0 -13.764583931231094 -4.2650075623382 -10.507686104501598 62.764325275277024 -39.10441728477396 -19.923838997791975 53.36377556014585 13.627490267968401 -16.897939187600617 -5.594231461930425 -0.36506618281536185 10.518490658421964 0 0 0 0 0 0 0 0 0 0 0 0 0 0 0 0 0 0 0 0 0 0 0 0 0 0 0 0 0 0 0 0 0 0 0 0 0 0 0 0 0 0 0 0 0
2.674099287538694 -2.9901223300566464 -4.676650247158384 6.304747156093578 17.896655739007596 1.9421362192763718 4.636828351087531 -58.26857935768748 22.126934290858962 176.27433018659556 47.108737902590825 177.83762995160419 17.652346062740953 57.57378260033331 18.103018671810975 0 0 0 -1.3725245415576328 -58.98079635804559 -15.022986896021894 -176.36584434322282 47.22618648049998 -178.1286261088478 -1.1433261634060863 54.374557915222674 3.083505315850171 0 0 0 17.3564279834579 46.50958843178762 -4.628803646805105 -2.1980935793089205 28.691139565018677 -10.152660941602024 0 0 0 -52.8338957621531 -7.862335747323088 24.460604758765424 -20.429759458811358 -5.276663347098824 -8.026878794481087 -56.749528230864975 -21.573095240297548 -0.20686403369672088 32.75926436654096 -24.249597702495077 -57.45657179222858 0 0 0 0 0 0 0 0 0 0 0 0 0 0 0 0 0 0 0 0 0 0 0 0 0 0 0 0 0 0 0 0 0 0 0 0 0 0 0 0 0 0 0 0 0 -16.569877193588052 -14.860254459278378 4.361390133893027 -21.124662130705335 -33.3269986075669 -1.6611418777374998 0 0 0 0 0 0 0 0 0 -13.408392513811737 -3.913727804612498 -10.201761948061902 62.37701795168852 -39.26376963396931 -19.415749738183592 53.14397033893518 13.667664217580738 -17.550266490326052 -5.264680780767043 -0.353132834204265 10.3105172787369 0 0 0 0 0 0 0 0 0 0 0 0 0 0 0 0 0 0 0 0 0 0 0 0 0 0 0 0 0 0 0 0 0 0 0 0 0 0 0 0 0 0 0 0 0
2.674099287538694 -2.9901223300566464 -4.676650247158384 6.304747156093578 17.896655739007596 1.9421362192763718 4.636828351087531 -58.26857935768748 22.126934290858962 176.27433018659556 47.108737902590825 177.83762995160419 17.652346062740953 57.57378260033331 18.103018671810975 0 0 0 -1.3725245415576328 -58.98079635804559 -15.022986896021894 -176.36584434322282 47.22618648049998 -178.1286261088478 -1.1433280206202314 54.37456377820777 3.0835038016978102 0 0 0 17.26674060977936 46.17765191177168 -4.761175566969383 -2.1980935793089205 28.691139565018677 -10.152660941602024 0 0 0 -53.02543244216906 -7.548166723444329 24.167716040631827 -20.429759458811358 -5.276663347098824 -8.026878794481087 -55.82473215817221 -21.575113207997575 -0.16462743624017168 32.32392084500418 -24.099055974695275 -57.674145491002804 0 0 0 0 0 0 0 0 0 0 0 0 0 0 0 0 0 0 0 0 0 0 0 0 0 0 0 0 0 0 0 0 0 0 0 0 0 0 0 0 0 0 0 0 0 -16.569877193588052 -14.860254459278378 4.361390133893027 -21.124662130705335 -33.3269986075669 -1.6611418777374998 0 0 0 0 0 0 0 0 0 -13.05035671120441 -3.5642424555332552 -9.893675853848915 61.98693544948551 -39.42045678318808 -18.90504171462913 52.92360105342144 13.705420408028212 -18.203098180366247 -4.935129781241545 -0.34000147523560115 10.102591420864664 0 0 0 0 0 0 0 0 0 0 0 0 0 0 0 0 0 0 0 0 0 0 0 0 0 0 0 0 0 0 0 0 0 0 0 0 0 0 0 0 0 0 0 0 0
2.674099287538694 -2.9901223300566464 -4.676650247158384 6.304747156093578 17.896655739007596 1.9421362192763718 4.636825115044151 -58.26857935768748 22.12693729841648 176.27433018659556 47.108737902590825 177.83762995160419 17.652346062740953 57.57378260033331 18.103018671810975 0 0 0 -1.3725245415576328 -58.98079635804559 -15.022986896021894 -176.36584434322282 47.22618648049998 -178.1286261088478 -1.1433281376073998 54.37456377820777 3.0835037511694656 0 0 0 17.17869344018555 45.84555982967417 -4.892011995504633 -2.1980935793089205 28.691139565018677 -10.152660941602024 0 0 0 -53.21848934899008 -7.23491688707602 23.873924202003487 -20.429759458811358 -5.276663347098824 -8.026878794481087 -54.899286559711406 -21.577768374830892 -0.12240097022118045 31.888364162986527 -23.949993246600442 -57.89277805802677 0 0 0 0 0 0 0 0 0 0 0 0 0 0 0 0 0 0 0 0 0 0 0 0 0 0 0 0 0 0 0 0 0 0 0 0 0 0 0 0 0 0 0 0 0 -16.569877193588052 -14.860254459278378 4.361390133893027 -21.124662130705335 -33.3269986075669 -1.6611418777374998 0 0 0 0 0 0 0 0 0 -12.690474835393339 -3.216596660304988 -9.583437890056025 61.59415574721872 -39.57447521692596 -18.391748647315822 52.7026974267066 13.740740991932753 -18.856385842804276 -4.605590060083577 -0.3256728305765673 9.894716418674252 0 0 0 0 0 0 0 0 0 0 0 0 0 0 0 0 0 0 0 0 0 0 0 0 0 0 0 0 0 0 0 0 0 0 0 0 0 0 0 0 0 0 0 0 0
2.674099287538694 -2.9901223300566464 -4.676650247158384 6.304747156093578 17.896655739007596 1.9421362192763718 4.636830494028436 -58.26857935768748 22.126932506191007 176.27433018659556 47.108737902590825 177.83762995160419 17.652346062740953 57.57378260033331 18.103018671810975 0 0 0 -1.3725245415576328 -58.98079635804559 -15.022986896021894 -176.36584434322282 47.22618648049998 -178.1286261088478 -1.143327903633087 54.374557915222674 3.0835038522261455 0 0 0 17.092231233638604 45.513294158375444 -5.021361093016382 -2.1980935793089205 28.691139565018677 -10.152660941602024 0 0 0 -53.41303855334309 -6.9226114825629095 23.579221319126567 -20.429759458811358 -5.276663347098824 -8.026878794481087 -53.97333269373019 -21.58105893956289 -0.08020341260227817 31.452579290825987 -23.8024220372038 -58.11241606718247 0 0 0 0 0 0 0 0 0 0 0 0 0 0 0 0 0 0 0 0 0 0 0 0 0 0 0 0 0 0 0 0 0 0 0 0 0 0 0 0 0 0 0 0 0 -16.569877193588052 -14.860254459278378 4.361390133893027 -21.124662130705335 -33.3269986075669 -1.6611418777374998 0 0 0 0 0 0 0 0 0 -12.328748223742464 -2.8708297124053765 -9.271046313949013 61.19866058176984 -39.72577717218071 -17.875898143426735 52.48131038810032 13.773625761661567 -19.51006385157716 -4.276077434542292 -0.31014762492184694 9.686913941272442 0 0 0 0 0 0 0 0 0 0 0 0 0 0 0 0 0 0 0 0 0 0 0 0 0 0 0 0 0 0 0 0 0 0 0 0 0 0 0 0 0 0 0 0 0
